<svg width="476" height="476" xmlns="http://www.w3.org/2000/svg" xmlns:xlink="http://www.w3.org/1999/xlink" xml:space="preserve" overflow="hidden"><defs><clipPath id="clip0"><rect x="424" y="993" width="476" height="476"/></clipPath></defs><g clip-path="url(#clip0)" transform="translate(-424 -993)"><path d="M640.458 1372.41C625.942 1374.44 611.425 1376.46 610.667 1381.08 609.908 1385.7 636.716 1395.6 635.906 1400.15 635.095 1404.7 606.588 1403.78 605.804 1408.36 605.019 1412.95 632.038 1422.95 631.198 1427.66 630.358 1432.36 601.575 1432.05 600.764 1436.6 599.954 1441.14 627.171 1450.43 626.335 1454.94 625.499 1459.45 603.706 1462.53 595.746 1463.65" stroke="#00B0F0" stroke-width="9.16667" stroke-miterlimit="8" fill="none" fill-rule="evenodd"/><path d="M797.831 1137.22C808.613 1147.15 819.395 1157.07 823.447 1154.72 827.499 1152.37 818.117 1125.38 822.143 1123.12 826.17 1120.86 843.568 1143.46 847.608 1141.15 851.647 1138.84 842.212 1111.62 846.38 1109.28 850.548 1106.94 868.589 1129.37 872.616 1127.11 876.643 1124.85 866.526 1097.93 870.54 1095.71 874.554 1093.49 890.781 1108.36 896.701 1113.8" stroke="#00B0F0" stroke-width="9.16667" stroke-miterlimit="8" fill="none" fill-rule="evenodd"/><path d="M525.5 1240.33C520.906 1226.37 516.312 1212.4 511.67 1212.5 507.028 1212.6 502.226 1240.88 497.648 1240.92 493.071 1240.95 488.813 1212.63 484.203 1212.7 479.593 1212.76 474.727 1241.27 469.989 1241.31 465.251 1241.34 460.353 1212.86 455.775 1212.89 451.197 1212.92 447.068 1241.5 442.522 1241.5 437.976 1241.5 431.029 1220.55 428.5 1212.89" stroke="#00B0F0" stroke-width="9.16667" stroke-miterlimit="8" fill="none" fill-rule="evenodd"/><path d="M27.7123 0C13.8079 4.63476-0.0963754 9.26953 0.000518804 13.9527 0.097413 18.6359 28.2613 23.4806 28.2936 28.0992 28.3259 32.7178 0.129701 37.0135 0.194307 41.6644 0.258914 46.3153 28.6489 51.2246 28.6812 56.0047 28.7135 60.7848 0.355808 65.7263 0.388096 70.345 0.420384 74.9636 28.875 79.13 28.875 83.7163 28.875 88.3026 8.01045 95.3113 0.388096 97.8628" stroke="#00B0F0" stroke-width="9.16667" stroke-miterlimit="8" fill="none" fill-rule="evenodd" transform="matrix(0.920427 -0.390914 -0.390914 -0.920427 613.347 1089.34)"/><path d="M790.645 1324.63C783.46 1337.4 776.274 1350.18 779.492 1353.58 782.71 1356.98 806.826 1341.65 809.953 1345.05 813.08 1348.45 795.08 1370.57 798.253 1373.98 801.425 1377.38 825.752 1361.94 828.987 1365.46 832.223 1368.98 814.537 1391.69 817.664 1395.09 820.791 1398.49 844.667 1382.46 847.748 1385.86 850.829 1389.25 840.083 1408.46 836.151 1415.47" stroke="#00B0F0" stroke-width="9.16667" stroke-miterlimit="8" fill="none" fill-rule="evenodd"/><path d="M533 1224.5C533 1144.69 597.695 1080 677.5 1080 757.305 1080 822 1144.69 822 1224.5 822 1304.31 757.305 1369 677.5 1369 597.695 1369 533 1304.31 533 1224.5Z" stroke="#8FAADC" stroke-width="24.0625" stroke-miterlimit="8" fill="#B4C7E7" fill-rule="evenodd"/><path d="M609 1275C609 1254.01 626.013 1237 647 1237 667.987 1237 685 1254.01 685 1275 685 1295.99 667.987 1313 647 1313 626.013 1313 609 1295.99 609 1275Z" stroke="#002060" stroke-width="13.75" stroke-miterlimit="8" fill="#0070C0" fill-rule="evenodd"/><path d="M692 1193C692 1191.34 693.343 1190 695 1190 696.657 1190 698 1191.34 698 1193 698 1194.66 696.657 1196 695 1196 693.343 1196 692 1194.66 692 1193Z" stroke="#000000" stroke-width="13.75" stroke-miterlimit="8" fill="#7F7F7F" fill-rule="evenodd"/><path d="M730 1298C730 1296.34 731.343 1295 733 1295 734.657 1295 736 1296.34 736 1298 736 1299.66 734.657 1301 733 1301 731.343 1301 730 1299.66 730 1298Z" stroke="#000000" stroke-width="13.75" stroke-miterlimit="8" fill="#7F7F7F" fill-rule="evenodd"/><path d="M605 1148C605 1146.34 606.567 1145 608.5 1145 610.433 1145 612 1146.34 612 1148 612 1149.66 610.433 1151 608.5 1151 606.567 1151 605 1149.66 605 1148Z" stroke="#000000" stroke-width="13.75" stroke-miterlimit="8" fill="#7F7F7F" fill-rule="evenodd"/><path d="M570 1240C570 1238.34 571.567 1237 573.5 1237 575.433 1237 577 1238.34 577 1240 577 1241.66 575.433 1243 573.5 1243 571.567 1243 570 1241.66 570 1240Z" stroke="#000000" stroke-width="13.75" stroke-miterlimit="8" fill="#7F7F7F" fill-rule="evenodd"/><path d="M754.385 1166.34C759.787 1163.65 766.344 1165.85 769.03 1171.26L781.303 1195.94C783.989 1201.34 781.786 1207.9 776.384 1210.59L773.877 1211.83C768.475 1214.52 761.918 1212.32 759.232 1206.91L746.959 1182.23C744.273 1176.83 746.476 1170.27 751.878 1167.58Z" stroke="#C00000" stroke-width="13.75" stroke-miterlimit="8" fill="#FF0000" fill-rule="evenodd" fill-opacity="0.8"/><path d="M667.745 1121.59C668.552 1115.61 674.053 1111.42 680.032 1112.23L707.353 1115.91C713.332 1116.72 717.525 1122.22 716.718 1128.2L716.344 1130.97C715.537 1136.95 710.035 1141.15 704.056 1140.34L676.735 1136.65C670.756 1135.85 666.563 1130.34 667.37 1124.37Z" stroke="#C00000" stroke-width="13.75" stroke-miterlimit="8" fill="#FF0000" fill-rule="evenodd" fill-opacity="0.8"/></g></svg>